<?xml version="1.0" encoding="UTF-8"?>
<svg width="25px" height="25px" viewBox="0 0 25 25" version="1.1" xmlns="http://www.w3.org/2000/svg" xmlns:xlink="http://www.w3.org/1999/xlink">
    <!-- Generator: Sketch 42 (36781) - http://www.bohemiancoding.com/sketch -->
    <title>Full-screen-collapse</title>
    <desc>Created with Sketch.</desc>
    <defs></defs>
    <g id="Page-1" stroke="none" stroke-width="1" fill="none" fill-rule="evenodd">
        <g id="Full-screen" fill-rule="nonzero" fill="#FFFFFF">
            <path d="M15.0803042,15.8896593 C15.7313067,15.8685009 16.2370185,16.3806285 16.2095027,17.0417128 L15.8596392,25.4473794 C15.805328,26.7522353 15.0066021,27.055332 14.0861797,26.1349096 L12.2026507,24.2513806 L10.4495928,26.0044384 C9.98996335,26.4640679 9.23805015,26.4573614 8.78055781,25.999869 L6.00527207,23.2245833 C5.54311897,22.7624302 5.5499384,22.0063126 6.00070269,21.5555483 L7.75376052,19.8024904 L5.87002744,17.9187573 C4.94478373,16.9935136 5.24425038,16.2093444 6.54948804,16.1669224 L15.0803042,15.8896593 Z M15.8896593,15.0803042 L16.1669224,6.54948804 C16.2093444,5.24425038 16.9935136,4.94478373 17.9187573,5.87002744 L19.8024904,7.75376052 L21.5555483,6.00070269 C22.0063126,5.5499384 22.7624302,5.54311897 23.2245833,6.00527207 L25.999869,8.78055781 C26.4573614,9.23805015 26.4640679,9.98996335 26.0044384,10.4495928 L24.2513806,12.2026507 L26.1349096,14.0861797 C27.055332,15.0066021 26.7522353,15.805328 25.4473794,15.8596392 L17.0417128,16.2095027 C16.3806285,16.2370185 15.8685009,15.7313067 15.8896593,15.0803042 Z" id="Combined-Shape"></path>
        </g>
    </g>
</svg>