<?xml version="1.0" encoding="UTF-8"?>
<svg width="25px" height="25px" viewBox="0 0 25 25" version="1.1" xmlns="http://www.w3.org/2000/svg" xmlns:xlink="http://www.w3.org/1999/xlink">
    <!-- Generator: Sketch 42 (36781) - http://www.bohemiancoding.com/sketch -->
    <title>Full-screen</title>
    <desc>Created with Sketch.</desc>
    <defs></defs>
    <g id="Page-1" stroke="none" stroke-width="1" fill="none" fill-rule="evenodd">
        <g id="Full-screen" fill-rule="nonzero" fill="#FFFFFF">
            <path d="M19.9994815,4.92631697 L19.7722495,11.9177781 C19.7374824,12.9874904 19.0948137,13.2329193 18.3365269,12.4746325 L16.7927067,10.9308123 L15.3559818,12.3675371 C14.9865563,12.7369626 14.3668774,12.7425515 13.9881181,12.3637923 L11.7136227,10.0892968 C11.3386832,9.71435735 11.3331868,9.09812417 11.7098778,8.72143316 L13.1466027,7.28470829 L11.6029497,5.74105529 C10.8486142,4.98671977 11.0970182,4.33212107 12.1664176,4.28761017 L19.0553119,4.00087829 C19.597106,3.97832756 20.016822,4.39278557 19.9994815,4.92631697 Z M4.92631697,19.9994815 C4.39278557,20.016822 3.97832756,19.597106 4.00087829,19.0553119 L4.28761017,12.1664176 C4.33212107,11.0970182 4.98671977,10.8486142 5.74105529,11.6029497 L7.28470829,13.1466027 L8.72143316,11.7098778 C9.09812417,11.3331868 9.71435735,11.3386832 10.0892968,11.7136227 L12.3637923,13.9881181 C12.7425515,14.3668774 12.7369626,14.9865563 12.3675371,15.3559818 L10.9308123,16.7927067 L12.4746325,18.3365269 C13.2329193,19.0948137 12.9874904,19.7374824 11.9177781,19.7722495 L4.92631697,19.9994815 Z" id="Combined-Shape"></path>
        </g>
    </g>
</svg>