<?xml version="1.0" encoding="UTF-8"?>
<svg width="25px" height="25px" viewBox="0 0 25 25" version="1.1" xmlns="http://www.w3.org/2000/svg" xmlns:xlink="http://www.w3.org/1999/xlink">
    <!-- Generator: Sketch 42 (36781) - http://www.bohemiancoding.com/sketch -->
    <title>Mute</title>
    <desc>Created with Sketch.</desc>
    <defs></defs>
    <g id="Page-1" stroke="none" stroke-width="1" fill="none" fill-rule="evenodd">
        <g id="Mute" fill-rule="nonzero" fill="#FFFFFF">
            <path d="M7.26789643,8.58314298 L4.3049788,5.71898928 C3.90789249,5.33513917 3.89716242,4.70206512 4.28101253,4.3049788 C4.66486263,3.90789249 5.29793668,3.89716242 5.695023,4.28101253 L20.695023,18.7810125 C21.0921093,19.1648626 21.1028394,19.7979367 20.7189893,20.195023 C20.3351392,20.5921093 19.7020651,20.6028394 19.3049788,20.2189893 L17.2996771,18.2805309 C16.6626824,18.7913792 15.9369333,19.2137369 15.1338176,19.5220241 C14.6182154,19.7199453 14.0397904,19.4624139 13.8418693,18.9468116 C13.6439481,18.4312094 13.9014795,17.8527844 14.4170817,17.6548633 C14.9384885,17.454714 15.4165813,17.1907019 15.8458619,16.8751762 L12,13.1575098 L12,17.8569791 C12,18.9565256 11.3645018,19.2155412 10.580575,18.4316144 L7,14.8510394 L5,14.8510394 C3.88772964,14.8510394 3,13.9565432 3,12.8531263 L3,10.8489525 C3,9.74930003 3.8954305,8.85103941 5,8.85103941 L7,8.85103941 L7.26789643,8.58314298 Z M9.68231311,6.1687263 L10.580575,5.27046442 C11.3667465,4.48429286 12,4.7438106 12,5.84509968 L12,8.40915696 L9.68231311,6.1687263 Z M17.9265117,14.1381183 C18.4434412,12.7843147 18.4820836,11.2423345 17.9218807,9.78295594 C17.2914517,8.14063233 16.0065418,6.88131153 14.3933713,6.26903727 C13.877027,6.07306025 13.617318,5.49560971 13.813295,4.9792654 C14.009272,4.46292108 14.5867226,4.20321207 15.1030669,4.39918909 C17.2431689,5.21145873 18.9523729,6.88662372 19.7890415,9.06622004 C20.6411406,11.286014 20.4501381,13.649688 19.4565122,15.6171188 L17.9265117,14.1381183 Z" id="Combined-Shape"></path>
        </g>
    </g>
</svg>