<?xml version="1.0" encoding="UTF-8"?>
<svg width="25px" height="25px" viewBox="0 0 25 25" version="1.1" xmlns="http://www.w3.org/2000/svg" xmlns:xlink="http://www.w3.org/1999/xlink">
    <!-- Generator: Sketch 42 (36781) - http://www.bohemiancoding.com/sketch -->
    <title>replay</title>
    <desc>Created with Sketch.</desc>
    <defs></defs>
    <g id="Page-1" stroke="none" stroke-width="1" fill="none" fill-rule="evenodd">
        <g id="replay" fill-rule="nonzero" fill="#FFFFFF">
            <path fill="#fff" d="M16.7378489,4.42625 C16.2758489,3.86925 15.4298489,3.83825 14.9178489,4.35025 L14.9003489,4.36825 C14.4448489,4.82325 14.4243489,5.54475 14.8333489,6.04225 C15.8348489,7.26325 16.3843489,8.86825 16.2218489,10.60025 C15.9378489,13.62775 13.4398489,16.04525 10.4048489,16.23725 C6.77634891,16.46725 3.75034891,13.58025 3.75034891,10.00025 C3.75034891,6.55375 6.55384891,3.75025 10.0003489,3.75025 L10.0003489,5.00025 L12.4998489,2.50025 L10.0003489,0.00025 L10.0003489,1.25025 C4.96834891,1.25025 0.915348908,5.51925 1.27184891,10.62525 C1.57334891,14.93575 5.06484891,18.42725 9.37484891,18.72825 C14.4808489,19.08525 18.7503489,15.03175 18.7503489,10.00025 C18.7503489,7.88325 17.9938489,5.94075 16.7378489,4.42625" id="Shape"></path>
        </g>
    </g>
</svg>