<?xml version="1.0" encoding="UTF-8"?>
<svg width="25px" height="25px" viewBox="0 0 25 25" version="1.1" xmlns="http://www.w3.org/2000/svg" xmlns:xlink="http://www.w3.org/1999/xlink">
    <!-- Generator: Sketch 42 (36781) - http://www.bohemiancoding.com/sketch -->
    <title>Un-Mute</title>
    <desc>Created with Sketch.</desc>
    <defs></defs>
    <g id="Page-1" stroke="none" stroke-width="1" fill="none" fill-rule="evenodd">
        <g id="Un-Mute" fill-rule="nonzero" fill="#FFFFFF">
            <path d="M5,8.85103941 L7,8.85103941 L10.580575,5.27046442 C11.3667465,4.48429286 12,4.7438106 12,5.84509968 L12,17.8569791 C12,18.9565256 11.3645018,19.2155412 10.580575,18.4316144 L7,14.8510394 L5,14.8510394 C3.88772964,14.8510394 3,13.9565432 3,12.8531263 L3,10.8489525 C3,9.74930003 3.8954305,8.85103941 5,8.85103941 Z M16.5,12.2372009 C16.5,14.0072009 14.8743787,15.3583024 14.8743787,15.3583024 C14.4016683,15.8667265 14,15.7015648 14,15.016153 L14,10.7319257 C14,10.0445944 14,8.93036276 14,8.23893243 L14,9.45914628 C14,8.75904526 14.3914727,8.61121737 14.8743787,9.10959693 C14.8743787,9.10959693 16.5,10.4672009 16.5,12.2372009 Z M15.2653763,19.5531059 C14.7533068,19.7599954 14.1704754,19.5125981 13.9635858,19.0005286 C13.7566963,18.4884591 14.0040936,17.9056277 14.5161631,17.6987382 C17.6362287,16.4381499 19.1436329,12.8869282 17.8830445,9.7668626 C17.2240491,8.13579163 15.9173567,6.8990874 14.2937463,6.3150601 C13.7740603,6.12812438 13.504313,5.55529434 13.6912487,5.0356084 C13.8781844,4.51592245 14.4510144,4.2461751 14.9707004,4.43311082 C17.1246525,5.20790681 18.8628318,6.85298694 19.7374122,9.01764942 C21.4117796,13.161854 19.4095809,17.8787385 15.2653763,19.5531059 Z" id="Combined-Shape"></path>
        </g>
    </g>
</svg>